HIERARCHY
ROOT Hips
{
	OFFSET -3.958830 18.904000 13.208200
	CHANNELS 6 Xposition Yposition Zposition Zrotation Yrotation Xrotation 
	JOINT LHipJoint
	{
		OFFSET 0.000000 0.000000 0.000000
		CHANNELS 3 Zrotation Yrotation Xrotation
		JOINT LeftUpLeg
		{
			OFFSET 1.800000 -1.400000 0.085000
			CHANNELS 3 Zrotation Yrotation Xrotation
			JOINT LeftLeg
			{
				OFFSET 2.215000 -6.000000 0.000000
				CHANNELS 3 Zrotation Yrotation Xrotation
				JOINT LeftFoot
				{
					OFFSET 2.500000 -6.900000 0.000000
					CHANNELS 3 Zrotation Yrotation Xrotation
					JOINT LeftToeBase
					{
						OFFSET 0.200000 -0.500000 1.950000
						CHANNELS 3 Zrotation Yrotation Xrotation
						End Site
						{
							OFFSET 0.000000 0.000000 0.000000
						}
					}
				}
			}
		}
	}
	JOINT RHipJoint
	{
		OFFSET 0.000000 0.000000 0.000000
		CHANNELS 3 Zrotation Yrotation Xrotation
		JOINT RightUpLeg
		{
			OFFSET -1.800000 -1.400000 0.085000
			CHANNELS 3 Zrotation Yrotation Xrotation
			JOINT RightLeg
			{
				OFFSET -2.215000 -6.000000 0.000000
				CHANNELS 3 Zrotation Yrotation Xrotation
				JOINT RightFoot
				{
					OFFSET -2.500000 -6.900000 0.000000
					CHANNELS 3 Zrotation Yrotation Xrotation
					JOINT RightToeBase
					{
						OFFSET -0.200000 -0.500000 1.950000
						CHANNELS 3 Zrotation Yrotation Xrotation
						End Site
						{
							OFFSET 0.000000 0.000000 0.000000
						}
					}
				}
			}
		}
	}
	JOINT LowerBack
	{
		OFFSET 0.000000 0.000000 0.000000
		CHANNELS 3 Zrotation Yrotation Xrotation
		JOINT Spine
		{
			OFFSET -0.087000 1.940000 -0.288900
			CHANNELS 3 Zrotation Yrotation Xrotation
			JOINT Spine1
			{
				OFFSET 0.000000 1.950000 0.060000
				CHANNELS 3 Zrotation Yrotation Xrotation
				JOINT Neck
				{
					OFFSET 0.000000 0.000000 0.000000
					CHANNELS 3 Zrotation Yrotation Xrotation
					JOINT Neck1
					{
						OFFSET 0.000000 1.600000 0.340000
						CHANNELS 3 Zrotation Yrotation Xrotation
						JOINT Head
						{
							OFFSET 0.000000 1.667000 -0.240000
							CHANNELS 3 Zrotation Yrotation Xrotation
							End Site
							{
								OFFSET 0.000000 0.000000 0.000000
							}
						}
					}
				}
				JOINT LeftShoulder
				{
					OFFSET 0.000000 0.000000 0.000000
					CHANNELS 3 Zrotation Yrotation Xrotation
					JOINT LeftArm
					{
						OFFSET 2.700000 1.550000 -0.730000
						CHANNELS 3 Zrotation Yrotation Xrotation
						JOINT LeftForeArm
						{
							OFFSET 5.450000 0.000000 0.000000
							CHANNELS 3 Zrotation Yrotation Xrotation
							JOINT LeftHand
							{
								OFFSET 3.450000 0.000000 0.000000
								CHANNELS 3 Zrotation Yrotation Xrotation
								JOINT LeftHandIndex1
								{
									OFFSET 0.750000 0.000000 0.000000
									CHANNELS 3 Zrotation Yrotation Xrotation
									End Site
									{
										OFFSET 0.000000 0.000000 0.000000
									}
								}
							}
						}
					}
				}
				JOINT RightShoulder
				{
					OFFSET 0.000000 0.000000 0.000000
					CHANNELS 3 Zrotation Yrotation Xrotation
					JOINT RightArm
					{
						OFFSET -2.700000 1.550000 -0.730000
						CHANNELS 3 Zrotation Yrotation Xrotation
						JOINT RightForeArm
						{
							OFFSET -5.450000 0.000000 0.000000
							CHANNELS 3 Zrotation Yrotation Xrotation
							JOINT RightHand
							{
								OFFSET -3.450000 0.000000 0.000000
								CHANNELS 3 Zrotation Yrotation Xrotation
								JOINT RightHandIndex1
								{
									OFFSET -0.750000 0.000000 0.000000
									CHANNELS 3 Zrotation Yrotation Xrotation
									End Site
									{
										OFFSET 0.000000 0.000000 0.000000
									}
								}
							}
						}
					}
				}
			}
		}
	}
}
MOTION
Frames: 14
Frame Time: 0.016667
6.552470 16.551890 -1.851620 -7.502555 -67.160421 16.154896 -15.344935 13.570030 2.568346 11.780899 -1.630206 -1.402644 -6.144072 5.923102 9.600979 -0.110427 4.792613 3.138747 0.803930 0.570400 0.553230 18.191207 -9.583956 3.835189 -4.677614 4.410996 -44.757818 2.445107 -6.189337 31.266944 -0.285042 -3.813717 2.960602 0.340170 0.200330 0.294960 -4.066135 -3.696018 -7.309019 13.406958 -8.977655 10.802810 -2.331925 -8.017535 7.622300 -1.854645 -5.445471 -8.407923 -13.160412 2.123560 30.653794 -0.463110 -0.441090 -8.423190 -8.810746 -8.261163 1.233365 -36.644683 -25.147224 4.535053 -36.862204 -52.644300 16.771133 -3.516929 3.548190 0.280760 0.135840 0.052380 0.393910 12.314812 8.476946 5.670470 47.494984 2.224185 -6.845092 34.922202 38.070206 7.652070 2.119231 -1.922227 0.026500 0.137440 -0.371760 -0.050380 
6.491560 16.556090 -1.870130 -7.782379 -66.893383 16.222539 -15.345109 13.636550 2.561748 12.239241 -1.684678 -1.257821 -5.841080 5.969476 10.024544 -0.125954 4.841355 3.109556 0.792840 0.549440 0.559400 18.178523 -9.593856 3.817523 -4.396322 4.501818 -44.210262 2.484259 -6.285009 31.723973 -0.300544 -3.870188 2.936689 0.326860 0.186570 0.300030 -4.006537 -3.781126 -7.314130 13.055835 -8.950789 10.817242 -2.026704 -8.036803 7.696913 -1.756280 -5.312372 -8.583994 -13.086868 2.185592 31.179151 -0.772730 -0.206860 -8.746680 -8.547778 -8.692119 1.371033 -37.416445 -25.362650 4.737561 -36.678961 -50.732775 15.916406 -3.522811 3.516846 0.305080 0.129230 0.060980 0.374420 11.890315 8.842090 5.831477 48.142689 2.360040 -6.993954 34.949477 37.781068 7.517522 2.115416 -1.899617 0.021000 0.133540 -0.354710 -0.067360 
6.424760 16.561990 -1.888700 -7.837034 -66.590538 16.412714 -15.342838 13.686894 2.516324 12.539463 -1.752259 -1.616090 -5.391182 5.984387 10.751676 -0.152909 4.858566 3.102762 0.779060 0.527700 0.559760 18.177061 -9.596862 3.813663 -4.030938 4.654329 -43.916727 2.303015 -6.245868 31.967288 -0.298108 -3.891757 2.930368 0.322680 0.199850 0.303270 -3.960431 -3.829963 -7.278650 12.824060 -8.932468 10.352494 -1.730815 -8.101097 7.806965 -1.746643 -5.143126 -8.618770 -12.737220 2.173266 31.089515 -1.125430 -0.016920 -8.482510 -7.878022 -8.712586 1.499576 -39.120121 -25.812430 5.291834 -36.074971 -48.644869 14.803801 -3.547184 3.487191 0.305670 0.143930 0.050780 0.366630 11.220571 8.776611 5.751538 49.030219 2.818084 -6.889944 34.660991 37.415264 7.312952 2.109734 -1.892363 0.007520 0.139840 -0.342070 -0.075550 
6.351890 16.572720 -1.912280 -7.969960 -66.352374 16.722795 -15.330004 13.739983 2.448043 12.775210 -1.795394 -2.231232 -4.755016 5.980505 11.781885 -0.157696 4.834436 3.111671 0.764080 0.519810 0.549550 18.184484 -9.616755 3.819077 -3.555445 4.877668 -43.546388 2.127654 -6.162152 32.118368 -0.292956 -3.888555 2.945095 0.314700 0.219840 0.301800 -3.944368 -3.841540 -7.226741 12.819815 -8.927967 9.837515 -1.572531 -8.157682 7.936033 -1.761402 -5.110531 -8.727354 -12.614723 2.231729 30.900918 -1.291210 0.060190 -8.151270 -7.191631 -8.873546 1.698544 -40.928395 -26.157821 5.782162 -35.142704 -45.992492 13.385958 -3.570981 3.454282 0.285930 0.159080 0.042530 0.368470 10.569318 8.944325 5.752541 50.092211 3.335328 -6.878269 34.414327 37.457350 7.185315 2.113819 -1.887924 0.008960 0.151780 -0.336760 -0.065220 
6.267070 16.589780 -1.936790 -8.215362 -66.488136 17.144982 -15.307225 13.799079 2.362383 12.816439 -1.792483 -2.949405 -3.871523 5.941102 13.229083 -0.185054 4.803642 3.113055 0.761960 0.514460 0.552600 18.198265 -9.667386 3.833083 -2.849123 5.234661 -42.934145 1.742888 -5.894104 31.979340 -0.282393 -3.818892 2.976022 0.314270 0.222770 0.305590 -3.943367 -3.785809 -7.163155 12.907709 -8.748740 9.339716 -1.562884 -8.013069 8.012768 -1.667767 -5.101178 -8.752468 -12.456021 2.246959 30.615371 -1.642710 0.158210 -8.017060 -6.829805 -8.769357 1.862829 -43.015957 -26.073756 6.104775 -34.076485 -43.319349 11.933997 -3.589973 3.432574 0.282410 0.167210 0.038620 0.366800 10.016730 8.947658 5.663061 51.357761 3.942932 -6.840580 34.066657 37.354686 6.998425 2.113019 -1.892123 0.007010 0.150330 -0.335090 -0.068430 
6.170780 16.614870 -1.964750 -8.500133 -67.023412 17.367688 -15.282804 13.893555 2.306280 12.846531 -1.760777 -3.547529 -3.149571 6.006293 15.113070 -0.156958 4.802794 3.094460 0.772490 0.527280 0.559200 18.197363 -9.761005 3.819037 -2.073793 5.510704 -41.627011 1.532205 -5.516759 31.124467 -0.265950 -3.638806 3.043589 0.304270 0.196460 0.314250 -3.927682 -3.728562 -7.118619 12.749297 -8.418933 9.121962 -1.412831 -7.736031 8.060403 -1.498504 -5.079026 -8.964074 -12.451491 2.447420 30.989141 -1.711700 0.350390 -7.607870 -6.999142 -9.093840 2.190684 -44.885558 -25.502802 5.991285 -32.497943 -40.219406 10.227635 -3.577049 3.439959 0.273640 0.153840 0.053740 0.371900 9.871796 9.444614 5.781397 52.413071 4.373225 -7.042499 33.692672 37.563436 6.822910 2.137891 -1.915411 0.034010 0.114390 -0.357120 -0.060730 
6.065140 16.638030 -1.994290 -8.540597 -67.581084 17.506223 -15.249928 13.985811 2.225667 12.673151 -1.792893 -4.739246 -2.148650 6.070906 17.962281 -0.153116 4.860670 3.061633 0.761890 0.509130 0.562110 18.204563 -9.883644 3.797100 -1.399803 5.677254 -40.197468 1.484271 -5.134869 29.750802 -0.220940 -3.419772 3.131162 0.294000 0.195010 0.310220 -3.924896 -3.608725 -7.040175 12.654634 -8.064202 8.667925 -1.528380 -7.416878 7.982966 -1.240244 -4.959755 -8.981929 -12.046181 2.558461 30.832545 -2.089640 0.661870 -6.711570 -7.551692 -9.133560 2.381015 -46.764613 -24.609364 5.819616 -30.703491 -36.669485 8.483826 -3.594699 3.426027 0.260050 0.160940 0.041370 0.370450 9.919198 9.591395 5.723949 53.551755 4.849470 -7.028178 33.516065 37.067822 6.536293 2.158990 -1.933123 0.030790 0.095490 -0.366520 -0.063810 
5.952490 16.664790 -2.025930 -8.504321 -68.463013 17.319978 -15.217062 14.088427 2.179894 12.327249 -1.889547 -6.143610 -1.069952 6.184654 21.671882 -0.131240 5.045462 2.987083 0.727420 0.464700 0.552530 18.201170 -10.042689 3.752628 -0.701011 5.696597 -38.289797 1.469757 -4.755371 28.032562 -0.174484 -3.167301 3.245381 0.265520 0.205570 0.305160 -3.917584 -3.472307 -6.989653 12.353454 -7.703523 8.580223 -1.887143 -7.036885 7.824774 -0.777261 -4.717455 -9.124572 -11.468704 2.824317 31.109033 -2.597620 1.271990 -6.012730 -8.560373 -9.576879 2.727054 -47.985169 -22.896780 4.931984 -28.806033 -33.604631 6.909623 -3.618151 3.378755 0.264910 0.170810 0.036230 0.369150 10.030709 10.104583 5.753332 54.954044 5.529454 -7.059046 32.951698 36.055579 6.002921 2.180628 -1.911333 0.013850 0.096250 -0.362600 -0.069410 
5.840290 16.701750 -2.058980 -8.764655 -69.471240 17.264301 -15.180790 14.141839 2.185852 11.988730 -2.224980 -8.184135 0.002819 6.400430 26.730499 -0.059361 5.413806 2.822154 0.717800 0.457600 0.556010 18.200579 -10.221716 3.681904 -0.099295 5.556206 -36.030338 1.680681 -4.434507 25.954057 -0.135827 -2.918282 3.347623 0.250330 0.180370 0.302770 -3.961175 -3.273668 -6.965988 12.459515 -7.368204 8.774223 -2.456957 -6.617248 7.499212 -0.278554 -4.565122 -9.154987 -11.098813 3.012126 31.610681 -3.349520 1.911600 -5.341540 -10.367950 -10.131429 2.927735 -48.341535 -21.196586 4.035693 -26.937979 -30.103523 5.487794 -3.621420 3.359232 0.261490 0.165260 0.045970 0.367220 10.835118 10.783631 5.749830 55.877548 6.274183 -6.994530 32.242786 34.865369 5.412716 2.218511 -1.909954 0.021150 0.065250 -0.379940 -0.072320 
5.724440 16.737220 -2.097220 -9.046964 -71.013634 17.276080 -15.175060 14.074218 2.299864 11.752025 -2.828742 -10.805877 0.404674 7.025172 32.768044 0.074183 6.111626 2.547698 0.708170 0.444560 0.567410 18.187767 -10.341890 3.604228 0.216668 5.437019 -33.897940 2.324457 -4.292636 24.123265 -0.111279 -2.746347 3.428490 0.232320 0.161020 0.289730 -3.992817 -3.034478 -7.025465 12.213978 -6.760451 9.176296 -2.785799 -5.924008 6.980580 0.209685 -4.313151 -9.122293 -10.495357 3.321712 32.236703 -3.716480 2.594830 -4.886180 -12.645126 -10.405479 3.104839 -48.520566 -18.843861 2.731891 -25.172408 -27.507244 4.376338 -3.616575 3.324904 0.269430 0.154230 0.054880 0.365200 12.154680 11.266925 5.662094 56.335021 6.855323 -6.977681 31.736520 34.188206 5.076219 2.254027 -1.894226 0.018080 0.052100 -0.397380 -0.079310 
5.608890 16.779220 -2.140310 -10.008146 -73.014276 17.628869 -15.191518 13.889334 2.553414 11.892989 -3.644158 -13.683713 0.108801 8.226539 39.561805 0.282507 7.159381 2.145918 0.715450 0.448690 0.591150 18.164176 -10.433736 3.491397 0.530299 5.232286 -31.395461 3.076180 -4.221613 22.337897 -0.116675 -2.608931 3.488053 0.217610 0.114390 0.280200 -4.055694 -2.747386 -7.187745 12.100157 -5.998707 10.144455 -3.235712 -4.964243 6.277856 0.718833 -4.140545 -9.125478 -10.218279 3.571267 33.744970 -3.929390 3.027450 -5.217000 -15.251740 -10.671571 3.233958 -47.967412 -16.267396 1.276837 -23.634292 -25.342792 3.489553 -3.584887 3.284543 0.305290 0.116700 0.090940 0.358980 13.738338 11.927638 5.622961 56.390935 7.364697 -7.014321 31.059848 33.331118 4.714322 2.289662 -1.857303 0.024490 0.039140 -0.415770 -0.091220 
5.499470 16.816440 -2.185960 -10.536628 -74.589875 17.636821 -15.252321 13.570500 2.949435 12.397594 -4.718420 -17.353727 -0.605267 9.972615 46.890825 0.561560 8.484857 1.657404 0.736130 0.472730 0.617110 18.124605 -10.443079 3.336122 0.340170 4.908444 -29.093324 4.363274 -4.387969 20.824144 -0.144992 -2.568471 3.501649 0.211740 0.061190 0.280120 -4.096960 -2.476070 -7.424419 11.775935 -5.260541 11.192470 -3.384348 -4.035949 5.584015 1.079316 -3.888637 -9.135611 -9.778990 3.600341 35.250398 -3.912070 3.144880 -6.036260 -17.216875 -10.884982 3.354652 -47.864057 -14.162361 0.173785 -21.939994 -23.162634 2.639701 -3.552819 3.254556 0.339460 0.074800 0.134380 0.349180 14.988983 12.547784 5.531930 56.375584 7.999711 -6.995396 30.184978 32.566235 4.360672 2.315824 -1.823134 0.045360 0.023610 -0.429620 -0.099750 
5.396410 16.836480 -2.232060 -10.512514 -76.100512 17.370120 -15.348200 13.125035 3.434603 12.830612 -5.808867 -21.680331 -1.330109 12.104999 54.245510 0.876001 9.951702 1.166194 0.738680 0.476370 0.631500 18.083811 -10.373477 3.177461 -0.091000 4.690856 -27.536244 5.679618 -4.657159 19.950176 -0.173267 -2.615188 3.486045 0.206930 0.037370 0.279710 -4.117414 -2.162506 -7.702277 11.172344 -4.415310 12.034657 -3.432122 -3.041857 4.936391 1.414807 -3.366141 -9.018811 -8.666981 3.446680 36.390527 -4.098110 3.355070 -6.636770 -18.904495 -10.901551 3.419642 -47.869116 -12.173849 -0.750280 -20.226306 -21.168876 1.904723 -3.550007 3.206820 0.367880 0.056560 0.160370 0.339960 16.021275 12.848461 5.251128 56.423083 8.967322 -6.761645 29.228703 32.149813 4.121406 2.324236 -1.786989 0.045780 0.027230 -0.428740 -0.110670 
5.287510 16.851680 -2.268730 -12.060239 -77.744549 18.848252 -15.425231 12.590760 3.914807 13.751604 -6.405121 -26.055097 -2.345388 14.758297 60.540980 1.209337 11.359411 0.726588 0.745750 0.485650 0.650150 18.082955 -10.300700 3.026553 -0.181702 4.609093 -26.211254 6.616656 -4.856265 19.389705 -0.201723 -2.687071 3.460174 0.202710 0.016170 0.289730 -4.211841 -1.712273 -7.962671 11.281802 -3.489074 12.502729 -3.868861 -1.926163 4.357496 1.836668 -2.796998 -8.750753 -7.264846 3.229338 37.015845 -4.509520 3.692240 -6.970990 -20.367494 -10.363466 3.365109 -48.144036 -10.100583 -1.702167 -18.572538 -19.910822 1.361936 -3.557671 3.182025 0.374390 0.050100 0.179500 0.330580 16.581894 12.591563 4.784624 56.792750 10.156070 -6.276431 28.766216 32.015773 4.088607 2.332330 -1.780141 0.059420 0.016110 -0.431560 -0.117460 
